<?xml version="1.0" encoding="UTF-8" standalone="no"?>
<!-- Created with Inkscape (http://www.inkscape.org/) -->

<svg
   xmlns:dc="http://purl.org/dc/elements/1.1/"
   xmlns:cc="http://creativecommons.org/ns#"
   xmlns:rdf="http://www.w3.org/1999/02/22-rdf-syntax-ns#"
   xmlns:svg="http://www.w3.org/2000/svg"
   xmlns="http://www.w3.org/2000/svg"
   xmlns:xlink="http://www.w3.org/1999/xlink"
   version="1.0"
   width="550"
   height="420"
   id="svg2">
  <defs
     id="defs4">
    <linearGradient
       id="linearGradient6377">
      <stop
         id="stop6379"
         style="stop-color:#795400;stop-opacity:1"
         offset="0" />
      <stop
         id="stop6410"
         style="stop-color:#694900;stop-opacity:1"
         offset="0.05525341" />
      <stop
         id="stop6412"
         style="stop-color:#4f3600;stop-opacity:1"
         offset="0.10682326" />
      <stop
         id="stop6414"
         style="stop-color:#4f3600;stop-opacity:1"
         offset="0.10682326" />
      <stop
         id="stop6387"
         style="stop-color:#644500;stop-opacity:1"
         offset="0.12931034" />
      <stop
         id="stop6389"
         style="stop-color:#7e5700;stop-opacity:1"
         offset="0.20645066" />
      <stop
         id="stop6391"
         style="stop-color:#9e6d00;stop-opacity:1"
         offset="0.33249363" />
      <stop
         id="stop6393"
         style="stop-color:#d89600;stop-opacity:1"
         offset="0.70547152" />
      <stop
         id="stop6395"
         style="stop-color:#d69d1c;stop-opacity:1"
         offset="0.77279305" />
      <stop
         id="stop6397"
         style="stop-color:#d49c1e;stop-opacity:1"
         offset="0.77279305" />
      <stop
         id="stop6399"
         style="stop-color:#de9f0e;stop-opacity:1"
         offset="0.78819311" />
      <stop
         id="stop6401"
         style="stop-color:#ebac1c;stop-opacity:1"
         offset="0.82437479" />
      <stop
         id="stop6403"
         style="stop-color:#eda90f;stop-opacity:1"
         offset="0.82437479" />
      <stop
         id="stop6405"
         style="stop-color:#c48800;stop-opacity:1"
         offset="0" />
      <stop
         id="stop6407"
         style="stop-color:#c48800;stop-opacity:1"
         offset="0" />
      <stop
         id="stop6381"
         style="stop-color:#c48800;stop-opacity:1"
         offset="1" />
    </linearGradient>
    <linearGradient
       id="linearGradient6438">
      <stop
         id="stop6440"
         style="stop-color:#232803;stop-opacity:1"
         offset="0" />
      <stop
         id="stop6442"
         style="stop-color:#55490c;stop-opacity:1"
         offset="0.080316" />
      <stop
         id="stop6444"
         style="stop-color:#886a16;stop-opacity:1"
         offset="0.163606" />
      <stop
         id="stop6446"
         style="stop-color:#a68c29;stop-opacity:1"
         offset="0.224151" />
      <stop
         id="stop6448"
         style="stop-color:#ccb54a;stop-opacity:1"
         offset="0.284697" />
      <stop
         id="stop6450"
         style="stop-color:#ebdb66;stop-opacity:1"
         offset="0.34524199" />
      <stop
         id="stop6452"
         style="stop-color:#f0e36b;stop-opacity:1"
         offset="0.38230401" />
      <stop
         id="stop6454"
         style="stop-color:#f5ec70;stop-opacity:1"
         offset="0.41402301" />
      <stop
         id="stop6456"
         style="stop-color:#e3d55e;stop-opacity:1"
         offset="0.467446" />
      <stop
         id="stop6458"
         style="stop-color:#d1be4c;stop-opacity:1"
         offset="0.51641601" />
      <stop
         id="stop6460"
         style="stop-color:#c6ad3f;stop-opacity:1"
         offset="0.54168099" />
      <stop
         id="stop6462"
         style="stop-color:#bb9c33;stop-opacity:1"
         offset="0.571953" />
      <stop
         id="stop6464"
         style="stop-color:#a88e2a;stop-opacity:1"
         offset="0.63249898" />
      <stop
         id="stop6466"
         style="stop-color:#b99e37;stop-opacity:1"
         offset="0.66277099" />
      <stop
         id="stop6468"
         style="stop-color:#caae44;stop-opacity:1"
         offset="0.69805199" />
      <stop
         id="stop6470"
         style="stop-color:#d2bc4d;stop-opacity:1"
         offset="0.72832501" />
      <stop
         id="stop6472"
         style="stop-color:#daca56;stop-opacity:1"
         offset="0.75792998" />
      <stop
         id="stop6474"
         style="stop-color:#d5c24f;stop-opacity:1"
         offset="0.78720099" />
      <stop
         id="stop6476"
         style="stop-color:#d0bb49;stop-opacity:1"
         offset="0.81747401" />
      <stop
         id="stop6478"
         style="stop-color:#bb9c33;stop-opacity:1"
         offset="0.87801898" />
      <stop
         id="stop6480"
         style="stop-color:#896c1a;stop-opacity:1"
         offset="0.93489099" />
      <stop
         id="stop6482"
         style="stop-color:#564a0e;stop-opacity:1"
         offset="0.97328901" />
      <stop
         id="stop6484"
         style="stop-color:#232803;stop-opacity:1"
         offset="1" />
    </linearGradient>
    <linearGradient
       x1="182.82312"
       y1="434.39325"
       x2="562.53265"
       y2="616.24091"
       id="linearGradient6626"
       xlink:href="#linearGradient6438"
       gradientUnits="userSpaceOnUse" />
    <linearGradient
       x1="182.82312"
       y1="434.39325"
       x2="562.53265"
       y2="616.24091"
       id="linearGradient6630"
       xlink:href="#linearGradient6438"
       gradientUnits="userSpaceOnUse"
       gradientTransform="matrix(1.346179,0,0,1.346179,-127.6557,-205.7581)" />
    <linearGradient
       x1="182.82312"
       y1="434.39325"
       x2="562.53265"
       y2="616.24091"
       id="linearGradient6742"
       xlink:href="#linearGradient6438"
       gradientUnits="userSpaceOnUse"
       gradientTransform="matrix(1.346179,0,0,1.346179,-127.6557,-205.7581)" />
    <linearGradient
       id="linearGradient7749">
      <stop
         id="stop7753"
         style="stop-color:#585858;stop-opacity:1"
         offset="0" />
      <stop
         id="stop7755"
         style="stop-color:#888888;stop-opacity:1"
         offset="0.163606" />
      <stop
         id="stop7757"
         style="stop-color:#a6a6a6;stop-opacity:1"
         offset="0.224151" />
      <stop
         id="stop7759"
         style="stop-color:#cccccc;stop-opacity:1"
         offset="0.284697" />
      <stop
         id="stop7761"
         style="stop-color:#cccac2;stop-opacity:1"
         offset="0.284697" />
      <stop
         id="stop7769"
         style="stop-color:#e3e3e3;stop-opacity:1"
         offset="0.467446" />
      <stop
         id="stop7771"
         style="stop-color:#d1d1d1;stop-opacity:1"
         offset="0.51641601" />
      <stop
         id="stop7773"
         style="stop-color:#c6c6c6;stop-opacity:1"
         offset="0.54168099" />
      <stop
         id="stop7775"
         style="stop-color:#bbbbbb;stop-opacity:1"
         offset="0.571953" />
      <stop
         id="stop7777"
         style="stop-color:#a8a8a8;stop-opacity:1"
         offset="0.63249898" />
      <stop
         id="stop7779"
         style="stop-color:#b9b9b9;stop-opacity:1"
         offset="0.66277099" />
      <stop
         id="stop7781"
         style="stop-color:#cacaca;stop-opacity:1"
         offset="0.69805199" />
      <stop
         id="stop7783"
         style="stop-color:#d2d2d2;stop-opacity:1"
         offset="0.72832501" />
      <stop
         id="stop7785"
         style="stop-color:#dadada;stop-opacity:1"
         offset="0.75792998" />
      <stop
         id="stop7787"
         style="stop-color:#d5d5d5;stop-opacity:1"
         offset="0.78720099" />
      <stop
         id="stop7789"
         style="stop-color:#d0d0d0;stop-opacity:1"
         offset="0.81747401" />
      <stop
         id="stop7791"
         style="stop-color:#bbbbbb;stop-opacity:1"
         offset="0.87801898" />
      <stop
         id="stop7793"
         style="stop-color:#898989;stop-opacity:1"
         offset="0.93489099" />
      <stop
         id="stop7795"
         style="stop-color:#000000;stop-opacity:1"
         offset="1" />
    </linearGradient>
    <linearGradient
       x1="182.82312"
       y1="434.39325"
       x2="562.53265"
       y2="616.24091"
       id="linearGradient8715"
       xlink:href="#linearGradient6438"
       gradientUnits="userSpaceOnUse"
       gradientTransform="matrix(1.367466,0,0,1.325223,-126.8172,-196.8408)" />
    <linearGradient
       x1="-919.80841"
       y1="341.90723"
       x2="-174.85301"
       y2="528.99152"
       id="linearGradient3272"
       xlink:href="#linearGradient7749"
       gradientUnits="userSpaceOnUse"
       gradientTransform="matrix(0.761885,0,0,0.761885,801.2269,173.5308)" />
  </defs>
  <metadata
     id="metadata7">
    <rdf:RDF>
      <cc:Work
         rdf:about="">
        <dc:format>image/svg+xml</dc:format>
        <dc:type
           rdf:resource="http://purl.org/dc/dcmitype/StillImage" />
        <dc:title></dc:title>
        <dc:date>2006.07.25</dc:date>
        <dc:creator>
          <cc:Agent>
            <dc:title>Piotr Michal Jaworski</dc:title>
          </cc:Agent>
        </dc:creator>
        <dc:rights>
          <cc:Agent>
            <dc:title>Piotr Michal Jaworski</dc:title>
          </cc:Agent>
        </dc:rights>
        <dc:publisher>
          <cc:Agent>
            <dc:title>Piotr Michal Jaworski</dc:title>
          </cc:Agent>
        </dc:publisher>
        <dc:description>piomrex (AT-) konin.lm.pl</dc:description>
        <cc:license
           rdf:resource="http://web.resource.org/cc/PublicDomain" />
      </cc:Work>
      <cc:License
         rdf:about="http://web.resource.org/cc/PublicDomain">
        <cc:permits
           rdf:resource="http://web.resource.org/cc/Reproduction" />
        <cc:permits
           rdf:resource="http://web.resource.org/cc/Distribution" />
        <cc:permits
           rdf:resource="http://web.resource.org/cc/DerivativeWorks" />
      </cc:License>
    </rdf:RDF>
  </metadata>
  <g
     transform="translate(91.8807,-528.7477)"
     id="layer1">
    <g
       transform="matrix(0.58417723,0,0,0.58225929,-37.375644,394.7305)"
       id="g3158">
      <path
         d="M 139.40136,245.59328 C 92.226932,265.2833 47.25023,292.53508 55.096906,349.29113 116.02223,345.77606 130.31837,296.17918 139.40136,245.59328 z m 475.91635,0 c 9.08299,50.5859 23.3791,100.18278 84.30446,103.69785 7.84667,-56.75605 -37.12999,-84.00783 -84.30446,-103.69785 z M 18.5818,268.35212 C -6.3940405,312.95411 -25.009596,362.13672 16.183919,401.96039 61.96114,361.60321 42.645302,313.76567 18.5818,268.35212 z m 717.55547,0 c -24.0635,45.41355 -43.42142,93.25109 2.35582,133.60827 41.19352,-39.82367 22.62004,-89.00628 -2.35582,-133.60827 z m -612.76385,73.74537 c -49.017162,14.50673 -96.650023,36.75155 -94.947686,94.02219 60.950301,3.05218 80.481416,-44.70522 94.947686,-94.02219 z m 507.93016,0 c 14.46627,49.31697 33.99736,97.07437 94.94769,94.02219 1.70234,-57.27064 -45.93051,-79.51546 -94.94769,-94.02219 z m -666.947546,28.39596 c -15.399103,48.74424 -23.601412,100.70701 24.820175,131.33659 36.629026,-48.81164 7.9632819,-91.75528 -24.820175,-131.33659 z m 825.964946,0 c -32.78346,39.58131 -61.44921,82.52495 -24.82018,131.33659 48.42159,-30.62958 40.21925,-82.59235 24.82018,-131.33659 z M 71.713803,435.32038 C 28.275864,462.26989 -11.788799,496.3089 4.9938127,551.09178 64.582433,537.92163 70.800339,486.70715 71.713803,435.32038 z m 611.291467,0 c 0.91346,51.38677 7.13136,102.60125 66.72,115.7714 16.78261,-54.78288 -23.28202,-88.82189 -66.72,-115.7714 z M -75.861064,481.51115 C -73.24008,532.56273 -62.734957,584.1338 -6.6590493,595.8943 10.585605,537.35475 -31.304962,507.1273 -75.861064,481.51115 z m 906.399134,0 c -44.5561,25.61615 -86.4046,55.8436 -69.15994,114.38315 56.07591,-11.7605 66.53895,-63.33157 69.15994,-114.38315 z M 67.338721,522.82202 c -36.317944,35.974 -67.7646654,78.15513 -39.165395,127.80287 55.139209,-26.1518 49.757172,-77.51129 39.165395,-127.80287 z m 620.041629,0 c -10.59178,50.29158 -15.97383,101.65107 39.1654,127.80287 28.59927,-49.64774 -2.84744,-91.82887 -39.1654,-127.80287 z m -775.90391,65.41589 c 21.858488,46.20964 51.153321,89.85505 107.483973,79.38249 -6.339251,-60.69649 -56.531017,-72.65727 -107.483973,-79.38249 z m 931.7662,0 c -50.95296,6.72522 -101.18678,18.686 -107.52605,79.38249 56.33066,10.47256 85.66756,-33.17285 107.52605,-79.38249 z M 85.89075,614.19392 c -31.96016,39.8959 -58.36911,85.37409 -24.27329,131.42072 51.78229,-32.29335 40.55375,-82.6726 24.27329,-131.42072 z m 582.93757,0 c -16.28046,48.74812 -27.55107,99.12737 24.23122,131.42072 34.09582,-46.04663 7.72893,-91.52482 -24.23122,-131.42072 z m -542.97288,56.87606 c -24.00591,45.13149 -41.53984,94.72645 0.50481,133.65034 44.89413,-41.3373 24.53465,-88.76757 -0.50481,-133.65034 z m 503.00819,0 c -25.03946,44.88277 -45.44105,92.31304 -0.54688,133.65034 42.04465,-38.92389 24.55281,-88.51885 0.54688,-133.65034 z m -701.48545,0.9255 c 27.191012,43.28718 61.461485,83.17652 116.15,66.08898 -13.501745,-59.51438 -64.758957,-65.46179 -116.15,-66.08898 z m 899.96272,0 c -51.39103,0.62719 -102.69029,6.5746 -116.19208,66.08898 54.68853,17.08754 89.00109,-22.8018 116.19208,-66.08898 z m -656.89328,52.16444 c -8.37773,50.42762 -9.1763,102.99701 43.07772,126.49875 29.38645,-53.48545 -5.0446,-91.93126 -43.07772,-126.49875 z m 413.78177,0 c -38.03313,34.56749 -72.46416,73.0133 -43.07773,126.49875 52.25402,-23.50174 51.4555,-76.07113 43.07773,-126.49875 z M 22.78861,751.42004 c -15.1315706,0.15877 -31.056868,2.45601 -46.86385,5.30058 34.88637,37.36401 76.11259,70.0307 126.58289,42.90946 -16.852629,-38.4224 -46.429582,-48.55933 -79.71904,-48.21004 z m 704.5985,0 c -31.43807,0.61499 -59.13117,11.5341 -75.21775,48.21004 50.47029,27.12124 91.69654,-5.54545 126.58289,-42.90946 -17.38768,-3.12902 -34.89758,-5.62272 -51.36514,-5.30058 z m -494.46838,39.37574 c 18.69139,47.579 44.98014,93.14072 101.88893,86.492 -2.23023,-60.98595 -51.50574,-76.34487 -101.88893,-86.492 z m 288.8816,0 c -50.38318,10.14713 -99.70074,25.50605 -101.93099,86.492 56.90879,6.64872 83.23962,-38.913 101.93099,-86.492 z m -411.97284,23.85261 c -21.540608,0.45709 -44.422138,8.08652 -66.888263,16.78517 41.356099,30.04671 88.039683,54.27278 132.430353,18.04721 -18.43171,-26.67127 -41.12939,-35.35042 -65.54209,-34.83238 z m 530.47866,0 c -22.67658,0.62434 -43.71899,9.82807 -60.99873,34.83238 44.39067,36.22557 91.07427,11.9995 132.43036,-18.04721 -22.46613,-8.69865 -45.34766,-16.32808 -66.88827,-16.78517 -1.5258,-0.0324 -3.03158,-0.0416 -4.54336,0 z m -433.3855,45.72801 c -28.57265,0.54063 -55.89502,18.52211 -81.94864,38.2399 48.02167,17.52281 99.57975,28.01642 132.30415,-19.01478 -16.21042,-13.31527 -32.08626,-18.90009 -47.57901,-19.22512 -0.92429,-0.0194 -1.8548,-0.0174 -2.7765,0 z m 338.0592,0 c -15.49275,0.32503 -31.32652,5.90985 -47.53694,19.22512 32.7244,47.0312 84.24042,36.53759 132.26209,19.01478 -26.89406,-20.35385 -55.14807,-38.8604 -84.72515,-38.2399 z M 377.3385,877.11951 c -9.75825,0 -17.66859,7.91036 -17.6686,17.66859 0,9.75827 7.91035,17.71066 17.6686,17.71067 9.75825,0 17.6686,-7.95238 17.6686,-17.71067 0,-9.75826 -7.91034,-17.66861 -17.6686,-17.66859 z m -75.21775,14.68176 c -31.22557,0.0382 -59.16828,21.80577 -85.4403,45.43354 49.33078,13.40181 101.60996,19.46555 130.24282,-30.16282 -15.70702,-10.81607 -30.60908,-15.28807 -44.80252,-15.27072 z m 150.4355,0 c -14.19344,-0.0174 -29.05345,4.45465 -44.76045,15.27072 28.63286,49.62837 80.86999,43.56463 130.20075,30.16282 -26.27202,-23.62777 -54.21473,-45.39536 -85.4403,-45.43354 z"
         id="path3159"
         style="fill:#919191;fill-opacity:1;fill-rule:evenodd;stroke:#919191;stroke-width:1.00000095px;stroke-linecap:butt;stroke-linejoin:miter;stroke-opacity:1" />
      <g
         transform="matrix(1.346179,0,0,1.346179,-138.356,-200.6869)"
         id="g3044">
        <g
           transform="matrix(0.50592,0,0,0.50592,182.6551,465.1917)"
           id="g2882">
          <g
             transform="matrix(0.573143,-0.904671,1.000784,0.44482,-415.047,619.4634)"
             id="g2770">
            <path
               d="m 231.88637,633.39235 c 15.54046,-82.64247 -46.43556,-108.37156 -111.46924,-127.19257 10.79526,66.19329 32.50216,130.40788 111.46924,127.19257 z"
               id="path1872"
               style="fill:#009500;fill-opacity:1;fill-rule:evenodd;stroke:#007d00;stroke-width:1.36309373px;stroke-linecap:butt;stroke-linejoin:miter;stroke-opacity:1" />
            <path
               d="M 230.95444,631.93243 121.66391,508.22255 c 13.27232,70.37988 34.37154,126.76054 109.29053,123.70988 z"
               id="path1883"
               style="fill:#007400;fill-opacity:1;fill-rule:evenodd;stroke:#005d00;stroke-width:1.36309373px;stroke-linecap:butt;stroke-linejoin:miter;stroke-opacity:1" />
          </g>
          <g
             transform="matrix(1.067944,-0.0801205,0.240445,1.068466,-65.93123,-10.49398)"
             id="g2782">
            <path
               d="m 231.88637,633.39235 c 15.54046,-82.64247 -46.43556,-108.37156 -111.46924,-127.19257 10.79526,66.19329 32.50216,130.40788 111.46924,127.19257 z"
               id="path2784"
               style="fill:#009500;fill-opacity:1;fill-rule:evenodd;stroke:#007d00;stroke-width:1.36309373px;stroke-linecap:butt;stroke-linejoin:miter;stroke-opacity:1" />
            <path
               d="M 230.95444,631.93243 121.66391,508.22255 c 13.27232,70.37988 34.37154,126.76054 109.29053,123.70988 z"
               id="path2786"
               style="fill:#007400;fill-opacity:1;fill-rule:evenodd;stroke:#005d00;stroke-width:1.36309373px;stroke-linecap:butt;stroke-linejoin:miter;stroke-opacity:1" />
          </g>
          <g
             transform="matrix(0.647546,-0.853,0.959612,0.527804,-537.8228,514.5658)"
             id="g2788">
            <path
               d="m 231.88637,633.39235 c 15.54046,-82.64247 -46.43556,-108.37156 -111.46924,-127.19257 10.79526,66.19329 32.50216,130.40788 111.46924,127.19257 z"
               id="path2790"
               style="fill:#009500;fill-opacity:1;fill-rule:evenodd;stroke:#007d00;stroke-width:1.36309373px;stroke-linecap:butt;stroke-linejoin:miter;stroke-opacity:1" />
            <path
               d="M 230.95444,631.93243 121.66391,508.22255 c 13.27232,70.37988 34.37154,126.76054 109.29053,123.70988 z"
               id="path2792"
               style="fill:#007400;fill-opacity:1;fill-rule:evenodd;stroke:#005d00;stroke-width:1.36309373px;stroke-linecap:butt;stroke-linejoin:miter;stroke-opacity:1" />
          </g>
          <g
             transform="matrix(0.957678,0.479351,-0.34202,1.040411,150.4867,-161.5293)"
             id="g2794">
            <path
               d="m 231.88637,633.39235 c 15.54046,-82.64247 -46.43556,-108.37156 -111.46924,-127.19257 10.79526,66.19329 32.50216,130.40788 111.46924,127.19257 z"
               id="path2796"
               style="fill:#009500;fill-opacity:1;fill-rule:evenodd;stroke:#007d00;stroke-width:1.36309373px;stroke-linecap:butt;stroke-linejoin:miter;stroke-opacity:1" />
            <path
               d="M 230.95444,631.93243 121.66391,508.22255 c 13.27232,70.37988 34.37154,126.76054 109.29053,123.70988 z"
               id="path2798"
               style="fill:#007400;fill-opacity:1;fill-rule:evenodd;stroke:#005d00;stroke-width:1.36309373px;stroke-linecap:butt;stroke-linejoin:miter;stroke-opacity:1" />
          </g>
          <g
             transform="matrix(0.857054,-0.64217,0.777588,0.771226,-591.3635,267.2962)"
             id="g2800">
            <path
               d="m 231.88637,633.39235 c 15.54046,-82.64247 -46.43556,-108.37156 -111.46924,-127.19257 10.79526,66.19329 32.50216,130.40788 111.46924,127.19257 z"
               id="path2802"
               style="fill:#009500;fill-opacity:1;fill-rule:evenodd;stroke:#007d00;stroke-width:1.36309373px;stroke-linecap:butt;stroke-linejoin:miter;stroke-opacity:1" />
            <path
               d="M 230.95444,631.93243 121.66391,508.22255 c 13.27232,70.37988 34.37154,126.76054 109.29053,123.70988 z"
               id="path2804"
               style="fill:#007400;fill-opacity:1;fill-rule:evenodd;stroke:#005d00;stroke-width:1.36309373px;stroke-linecap:butt;stroke-linejoin:miter;stroke-opacity:1" />
          </g>
          <g
             transform="matrix(0.755076,0.759463,-0.655643,0.877249,268.1259,-190.6254)"
             id="g2806">
            <path
               d="m 231.88637,633.39235 c 15.54046,-82.64247 -46.43556,-108.37156 -111.46924,-127.19257 10.79526,66.19329 32.50216,130.40788 111.46924,127.19257 z"
               id="path2808"
               style="fill:#009500;fill-opacity:1;fill-rule:evenodd;stroke:#007d00;stroke-width:1.36309373px;stroke-linecap:butt;stroke-linejoin:miter;stroke-opacity:1" />
            <path
               d="M 230.95444,631.93243 121.66391,508.22255 c 13.27232,70.37988 34.37154,126.76054 109.29053,123.70988 z"
               id="path2810"
               style="fill:#007400;fill-opacity:1;fill-rule:evenodd;stroke:#005d00;stroke-width:1.36309373px;stroke-linecap:butt;stroke-linejoin:miter;stroke-opacity:1" />
          </g>
          <g
             transform="matrix(0.963548,-0.467438,0.616708,0.905043,-621.1371,68.84317)"
             id="g2812">
            <path
               d="m 231.88637,633.39235 c 15.54046,-82.64247 -46.43556,-108.37156 -111.46924,-127.19257 10.79526,66.19329 32.50216,130.40788 111.46924,127.19257 z"
               id="path2814"
               style="fill:#009500;fill-opacity:1;fill-rule:evenodd;stroke:#007d00;stroke-width:1.36309373px;stroke-linecap:butt;stroke-linejoin:miter;stroke-opacity:1" />
            <path
               d="M 230.95444,631.93243 121.66391,508.22255 c 13.27232,70.37988 34.37154,126.76054 109.29053,123.70988 z"
               id="path2816"
               style="fill:#007400;fill-opacity:1;fill-rule:evenodd;stroke:#005d00;stroke-width:1.36309373px;stroke-linecap:butt;stroke-linejoin:miter;stroke-opacity:1" />
          </g>
          <g
             transform="matrix(0.601115,0.886332,-0.806975,0.740424,304.6067,-220.1385)"
             id="g2818">
            <path
               d="m 231.88637,633.39235 c 15.54046,-82.64247 -46.43556,-108.37156 -111.46924,-127.19257 10.79526,66.19329 32.50216,130.40788 111.46924,127.19257 z"
               id="path2820"
               style="fill:#009500;fill-opacity:1;fill-rule:evenodd;stroke:#007d00;stroke-width:1.36309373px;stroke-linecap:butt;stroke-linejoin:miter;stroke-opacity:1" />
            <path
               d="M 230.95444,631.93243 121.66391,508.22255 c 13.27232,70.37988 34.37154,126.76054 109.29053,123.70988 z"
               id="path2822"
               style="fill:#007400;fill-opacity:1;fill-rule:evenodd;stroke:#005d00;stroke-width:1.36309373px;stroke-linecap:butt;stroke-linejoin:miter;stroke-opacity:1" />
          </g>
          <g
             transform="matrix(1.034559,-0.276788,0.434429,1.005338,-608.7405,-129.3146)"
             id="g2824">
            <path
               d="m 231.88637,633.39235 c 15.54046,-82.64247 -46.43556,-108.37156 -111.46924,-127.19257 10.79526,66.19329 32.50216,130.40788 111.46924,127.19257 z"
               id="path2826"
               style="fill:#009500;fill-opacity:1;fill-rule:evenodd;stroke:#007d00;stroke-width:1.36309373px;stroke-linecap:butt;stroke-linejoin:miter;stroke-opacity:1" />
            <path
               d="M 230.95444,631.93243 121.66391,508.22255 c 13.27232,70.37988 34.37154,126.76054 109.29053,123.70988 z"
               id="path2828"
               style="fill:#007400;fill-opacity:1;fill-rule:evenodd;stroke:#005d00;stroke-width:1.36309373px;stroke-linecap:butt;stroke-linejoin:miter;stroke-opacity:1" />
          </g>
          <g
             transform="matrix(0.746779,0.767624,-0.665138,0.870071,125.8572,-397.6447)"
             id="g2830">
            <g
               transform="matrix(0.915872,0.283064,-0.296023,1.000365,202.0032,-80.53104)"
               id="g2878">
              <path
                 d="m 231.88637,633.39235 c 15.54046,-82.64247 -46.43556,-108.37156 -111.46924,-127.19257 10.79526,66.19329 32.50216,130.40788 111.46924,127.19257 z"
                 id="path2832"
                 style="fill:#009500;fill-opacity:1;fill-rule:evenodd;stroke:#007d00;stroke-width:1.36309373px;stroke-linecap:butt;stroke-linejoin:miter;stroke-opacity:1" />
              <path
                 d="M 230.95444,631.93243 121.66391,508.22255 c 13.27232,70.37988 34.37154,126.76054 109.29053,123.70988 z"
                 id="path2834"
                 style="fill:#007400;fill-opacity:1;fill-rule:evenodd;stroke:#005d00;stroke-width:1.36309373px;stroke-linecap:butt;stroke-linejoin:miter;stroke-opacity:1" />
            </g>
          </g>
          <g
             transform="matrix(1.060106,-0.15198,0.311976,1.049811,-573.176,-289.8567)"
             id="g2836">
            <path
               d="m 231.88637,633.39235 c 15.54046,-82.64247 -46.43556,-108.37156 -111.46924,-127.19257 10.79526,66.19329 32.50216,130.40788 111.46924,127.19257 z"
               id="path2838"
               style="fill:#009500;fill-opacity:1;fill-rule:evenodd;stroke:#007d00;stroke-width:1.36309373px;stroke-linecap:butt;stroke-linejoin:miter;stroke-opacity:1" />
            <path
               d="M 230.95444,631.93243 121.66391,508.22255 c 13.27232,70.37988 34.37154,126.76054 109.29053,123.70988 z"
               id="path2840"
               style="fill:#007400;fill-opacity:1;fill-rule:evenodd;stroke:#005d00;stroke-width:1.36309373px;stroke-linecap:butt;stroke-linejoin:miter;stroke-opacity:1" />
          </g>
          <g
             transform="matrix(0.271022,1.036085,-1.007742,0.428823,425.1599,-343.1004)"
             id="g2842">
            <path
               d="m 231.88637,633.39235 c 15.54046,-82.64247 -46.43556,-108.37156 -111.46924,-127.19257 10.79526,66.19329 32.50216,130.40788 111.46924,127.19257 z"
               id="path2844"
               style="fill:#009500;fill-opacity:1;fill-rule:evenodd;stroke:#007d00;stroke-width:1.36309373px;stroke-linecap:butt;stroke-linejoin:miter;stroke-opacity:1" />
            <path
               d="M 230.95444,631.93243 121.66391,508.22255 c 13.27232,70.37988 34.37154,126.76054 109.29053,123.70988 z"
               id="path2846"
               style="fill:#007400;fill-opacity:1;fill-rule:evenodd;stroke:#005d00;stroke-width:1.36309373px;stroke-linecap:butt;stroke-linejoin:miter;stroke-opacity:1" />
          </g>
          <g
             transform="matrix(1.038141,0.263036,-0.111168,1.089529,-337.7276,-516.5949)"
             id="g2848">
            <path
               d="m 231.88637,633.39235 c 15.54046,-82.64247 -46.43556,-108.37156 -111.46924,-127.19257 10.79526,66.19329 32.50216,130.40788 111.46924,127.19257 z"
               id="path2850"
               style="fill:#009500;fill-opacity:1;fill-rule:evenodd;stroke:#007d00;stroke-width:1.36309373px;stroke-linecap:butt;stroke-linejoin:miter;stroke-opacity:1" />
            <path
               d="M 230.95444,631.93243 121.66391,508.22255 c 13.27232,70.37988 34.37154,126.76054 109.29053,123.70988 z"
               id="path2852"
               style="fill:#007400;fill-opacity:1;fill-rule:evenodd;stroke:#005d00;stroke-width:1.36309373px;stroke-linecap:butt;stroke-linejoin:miter;stroke-opacity:1" />
          </g>
          <g
             transform="matrix(-0.01253547,1.070872,-1.085257,0.147144,574.4317,-341.5833)"
             id="g2854">
            <path
               d="m 231.88637,633.39235 c 15.54046,-82.64247 -46.43556,-108.37156 -111.46924,-127.19257 10.79526,66.19329 32.50216,130.40788 111.46924,127.19257 z"
               id="path2856"
               style="fill:#009500;fill-opacity:1;fill-rule:evenodd;stroke:#007d00;stroke-width:1.36309373px;stroke-linecap:butt;stroke-linejoin:miter;stroke-opacity:1" />
            <path
               d="M 230.95444,631.93243 121.66391,508.22255 c 13.27232,70.37988 34.37154,126.76054 109.29053,123.70988 z"
               id="path2858"
               style="fill:#007400;fill-opacity:1;fill-rule:evenodd;stroke:#005d00;stroke-width:1.36309373px;stroke-linecap:butt;stroke-linejoin:miter;stroke-opacity:1" />
          </g>
          <g
             transform="matrix(0.880588,0.6095,-0.485195,0.981844,-70.36761,-666.8372)"
             id="g2860">
            <path
               d="m 231.88637,633.39235 c 15.54046,-82.64247 -46.43556,-108.37156 -111.46924,-127.19257 10.79526,66.19329 32.50216,130.40788 111.46924,127.19257 z"
               id="path2862"
               style="fill:#009500;fill-opacity:1;fill-rule:evenodd;stroke:#007d00;stroke-width:1.36309373px;stroke-linecap:butt;stroke-linejoin:miter;stroke-opacity:1" />
            <path
               d="M 230.95444,631.93243 121.66391,508.22255 c 13.27232,70.37988 34.37154,126.76054 109.29053,123.70988 z"
               id="path2864"
               style="fill:#007400;fill-opacity:1;fill-rule:evenodd;stroke:#005d00;stroke-width:1.36309373px;stroke-linecap:butt;stroke-linejoin:miter;stroke-opacity:1" />
          </g>
          <g
             transform="matrix(0.102611,1.066018,-1.06316,0.262912,572.8813,-541.2853)"
             id="g2866">
            <path
               d="m 231.88637,633.39235 c 15.54046,-82.64247 -46.43556,-108.37156 -111.46924,-127.19257 10.79526,66.19329 32.50216,130.40788 111.46924,127.19257 z"
               id="path2868"
               style="fill:#009500;fill-opacity:1;fill-rule:evenodd;stroke:#007d00;stroke-width:1.36309373px;stroke-linecap:butt;stroke-linejoin:miter;stroke-opacity:1" />
            <path
               d="M 230.95444,631.93243 121.66391,508.22255 c 13.27232,70.37988 34.37154,126.76054 109.29053,123.70988 z"
               id="path2870"
               style="fill:#007400;fill-opacity:1;fill-rule:evenodd;stroke:#005d00;stroke-width:1.36309373px;stroke-linecap:butt;stroke-linejoin:miter;stroke-opacity:1" />
          </g>
          <g
             transform="matrix(0.738484,0.775608,-0.674452,0.862871,122.1255,-776.6216)"
             id="g2872">
            <path
               d="m 231.88637,633.39235 c 15.54046,-82.64247 -46.43556,-108.37156 -111.46924,-127.19257 10.79526,66.19329 32.50216,130.40788 111.46924,127.19257 z"
               id="path2874"
               style="fill:#009500;fill-opacity:1;fill-rule:evenodd;stroke:#007d00;stroke-width:1.36309373px;stroke-linecap:butt;stroke-linejoin:miter;stroke-opacity:1" />
            <path
               d="M 230.95444,631.93243 121.66391,508.22255 c 13.27232,70.37988 34.37154,126.76054 109.29053,123.70988 z"
               id="path2876"
               style="fill:#007400;fill-opacity:1;fill-rule:evenodd;stroke:#005d00;stroke-width:1.36309373px;stroke-linecap:butt;stroke-linejoin:miter;stroke-opacity:1" />
          </g>
        </g>
        <g
           transform="matrix(-0.50592,0,0,0.50592,583.7993,465.1917)"
           id="g2936">
          <g
             transform="matrix(0.573143,-0.904671,1.000784,0.44482,-415.047,619.4634)"
             id="g2938">
            <path
               d="m 231.88637,633.39235 c 15.54046,-82.64247 -46.43556,-108.37156 -111.46924,-127.19257 10.79526,66.19329 32.50216,130.40788 111.46924,127.19257 z"
               id="path2940"
               style="fill:#009500;fill-opacity:1;fill-rule:evenodd;stroke:#007d00;stroke-width:1.36309373px;stroke-linecap:butt;stroke-linejoin:miter;stroke-opacity:1" />
            <path
               d="M 230.95444,631.93243 121.66391,508.22255 c 13.27232,70.37988 34.37154,126.76054 109.29053,123.70988 z"
               id="path2942"
               style="fill:#007400;fill-opacity:1;fill-rule:evenodd;stroke:#005d00;stroke-width:1.36309373px;stroke-linecap:butt;stroke-linejoin:miter;stroke-opacity:1" />
          </g>
          <g
             transform="matrix(1.067944,-0.0801205,0.240445,1.068466,-65.93123,-10.49398)"
             id="g2944">
            <path
               d="m 231.88637,633.39235 c 15.54046,-82.64247 -46.43556,-108.37156 -111.46924,-127.19257 10.79526,66.19329 32.50216,130.40788 111.46924,127.19257 z"
               id="path2946"
               style="fill:#009500;fill-opacity:1;fill-rule:evenodd;stroke:#007d00;stroke-width:1.36309373px;stroke-linecap:butt;stroke-linejoin:miter;stroke-opacity:1" />
            <path
               d="M 230.95444,631.93243 121.66391,508.22255 c 13.27232,70.37988 34.37154,126.76054 109.29053,123.70988 z"
               id="path2948"
               style="fill:#007400;fill-opacity:1;fill-rule:evenodd;stroke:#005d00;stroke-width:1.36309373px;stroke-linecap:butt;stroke-linejoin:miter;stroke-opacity:1" />
          </g>
          <g
             transform="matrix(0.647546,-0.853,0.959612,0.527804,-537.8228,514.5658)"
             id="g2950">
            <path
               d="m 231.88637,633.39235 c 15.54046,-82.64247 -46.43556,-108.37156 -111.46924,-127.19257 10.79526,66.19329 32.50216,130.40788 111.46924,127.19257 z"
               id="path2952"
               style="fill:#009500;fill-opacity:1;fill-rule:evenodd;stroke:#007d00;stroke-width:1.36309373px;stroke-linecap:butt;stroke-linejoin:miter;stroke-opacity:1" />
            <path
               d="M 230.95444,631.93243 121.66391,508.22255 c 13.27232,70.37988 34.37154,126.76054 109.29053,123.70988 z"
               id="path2954"
               style="fill:#007400;fill-opacity:1;fill-rule:evenodd;stroke:#005d00;stroke-width:1.36309373px;stroke-linecap:butt;stroke-linejoin:miter;stroke-opacity:1" />
          </g>
          <g
             transform="matrix(0.957678,0.479351,-0.34202,1.040411,150.4867,-161.5293)"
             id="g2956">
            <path
               d="m 231.88637,633.39235 c 15.54046,-82.64247 -46.43556,-108.37156 -111.46924,-127.19257 10.79526,66.19329 32.50216,130.40788 111.46924,127.19257 z"
               id="path2958"
               style="fill:#009500;fill-opacity:1;fill-rule:evenodd;stroke:#007d00;stroke-width:1.36309373px;stroke-linecap:butt;stroke-linejoin:miter;stroke-opacity:1" />
            <path
               d="M 230.95444,631.93243 121.66391,508.22255 c 13.27232,70.37988 34.37154,126.76054 109.29053,123.70988 z"
               id="path2960"
               style="fill:#007400;fill-opacity:1;fill-rule:evenodd;stroke:#005d00;stroke-width:1.36309373px;stroke-linecap:butt;stroke-linejoin:miter;stroke-opacity:1" />
          </g>
          <g
             transform="matrix(0.857054,-0.64217,0.777588,0.771226,-591.3635,267.2962)"
             id="g2962">
            <path
               d="m 231.88637,633.39235 c 15.54046,-82.64247 -46.43556,-108.37156 -111.46924,-127.19257 10.79526,66.19329 32.50216,130.40788 111.46924,127.19257 z"
               id="path2964"
               style="fill:#009500;fill-opacity:1;fill-rule:evenodd;stroke:#007d00;stroke-width:1.36309373px;stroke-linecap:butt;stroke-linejoin:miter;stroke-opacity:1" />
            <path
               d="M 230.95444,631.93243 121.66391,508.22255 c 13.27232,70.37988 34.37154,126.76054 109.29053,123.70988 z"
               id="path2966"
               style="fill:#007400;fill-opacity:1;fill-rule:evenodd;stroke:#005d00;stroke-width:1.36309373px;stroke-linecap:butt;stroke-linejoin:miter;stroke-opacity:1" />
          </g>
          <g
             transform="matrix(0.755076,0.759463,-0.655643,0.877249,268.1259,-190.6254)"
             id="g2968">
            <path
               d="m 231.88637,633.39235 c 15.54046,-82.64247 -46.43556,-108.37156 -111.46924,-127.19257 10.79526,66.19329 32.50216,130.40788 111.46924,127.19257 z"
               id="path2970"
               style="fill:#009500;fill-opacity:1;fill-rule:evenodd;stroke:#007d00;stroke-width:1.36309373px;stroke-linecap:butt;stroke-linejoin:miter;stroke-opacity:1" />
            <path
               d="M 230.95444,631.93243 121.66391,508.22255 c 13.27232,70.37988 34.37154,126.76054 109.29053,123.70988 z"
               id="path2972"
               style="fill:#007400;fill-opacity:1;fill-rule:evenodd;stroke:#005d00;stroke-width:1.36309373px;stroke-linecap:butt;stroke-linejoin:miter;stroke-opacity:1" />
          </g>
          <g
             transform="matrix(0.963548,-0.467438,0.616708,0.905043,-621.1371,68.84317)"
             id="g2974">
            <path
               d="m 231.88637,633.39235 c 15.54046,-82.64247 -46.43556,-108.37156 -111.46924,-127.19257 10.79526,66.19329 32.50216,130.40788 111.46924,127.19257 z"
               id="path2976"
               style="fill:#009500;fill-opacity:1;fill-rule:evenodd;stroke:#007d00;stroke-width:1.36309373px;stroke-linecap:butt;stroke-linejoin:miter;stroke-opacity:1" />
            <path
               d="M 230.95444,631.93243 121.66391,508.22255 c 13.27232,70.37988 34.37154,126.76054 109.29053,123.70988 z"
               id="path2978"
               style="fill:#007400;fill-opacity:1;fill-rule:evenodd;stroke:#005d00;stroke-width:1.36309373px;stroke-linecap:butt;stroke-linejoin:miter;stroke-opacity:1" />
          </g>
          <g
             transform="matrix(0.601115,0.886332,-0.806975,0.740424,304.6067,-220.1385)"
             id="g2980">
            <path
               d="m 231.88637,633.39235 c 15.54046,-82.64247 -46.43556,-108.37156 -111.46924,-127.19257 10.79526,66.19329 32.50216,130.40788 111.46924,127.19257 z"
               id="path2982"
               style="fill:#009500;fill-opacity:1;fill-rule:evenodd;stroke:#007d00;stroke-width:1.36309373px;stroke-linecap:butt;stroke-linejoin:miter;stroke-opacity:1" />
            <path
               d="M 230.95444,631.93243 121.66391,508.22255 c 13.27232,70.37988 34.37154,126.76054 109.29053,123.70988 z"
               id="path2984"
               style="fill:#007400;fill-opacity:1;fill-rule:evenodd;stroke:#005d00;stroke-width:1.36309373px;stroke-linecap:butt;stroke-linejoin:miter;stroke-opacity:1" />
          </g>
          <g
             transform="matrix(1.034559,-0.276788,0.434429,1.005338,-608.7405,-129.3146)"
             id="g2986">
            <path
               d="m 231.88637,633.39235 c 15.54046,-82.64247 -46.43556,-108.37156 -111.46924,-127.19257 10.79526,66.19329 32.50216,130.40788 111.46924,127.19257 z"
               id="path2988"
               style="fill:#009500;fill-opacity:1;fill-rule:evenodd;stroke:#007d00;stroke-width:1.36309373px;stroke-linecap:butt;stroke-linejoin:miter;stroke-opacity:1" />
            <path
               d="M 230.95444,631.93243 121.66391,508.22255 c 13.27232,70.37988 34.37154,126.76054 109.29053,123.70988 z"
               id="path2990"
               style="fill:#007400;fill-opacity:1;fill-rule:evenodd;stroke:#005d00;stroke-width:1.36309373px;stroke-linecap:butt;stroke-linejoin:miter;stroke-opacity:1" />
          </g>
          <g
             transform="matrix(0.746779,0.767624,-0.665138,0.870071,125.8572,-397.6447)"
             id="g2992">
            <g
               transform="matrix(0.915872,0.283064,-0.296023,1.000365,202.0032,-80.53104)"
               id="g2994">
              <path
                 d="m 231.88637,633.39235 c 15.54046,-82.64247 -46.43556,-108.37156 -111.46924,-127.19257 10.79526,66.19329 32.50216,130.40788 111.46924,127.19257 z"
                 id="path2996"
                 style="fill:#009500;fill-opacity:1;fill-rule:evenodd;stroke:#007d00;stroke-width:1.36309373px;stroke-linecap:butt;stroke-linejoin:miter;stroke-opacity:1" />
              <path
                 d="M 230.95444,631.93243 121.66391,508.22255 c 13.27232,70.37988 34.37154,126.76054 109.29053,123.70988 z"
                 id="path2998"
                 style="fill:#007400;fill-opacity:1;fill-rule:evenodd;stroke:#005d00;stroke-width:1.36309373px;stroke-linecap:butt;stroke-linejoin:miter;stroke-opacity:1" />
            </g>
          </g>
          <g
             transform="matrix(1.060106,-0.15198,0.311976,1.049811,-573.176,-289.8567)"
             id="g3000">
            <path
               d="m 231.88637,633.39235 c 15.54046,-82.64247 -46.43556,-108.37156 -111.46924,-127.19257 10.79526,66.19329 32.50216,130.40788 111.46924,127.19257 z"
               id="path3002"
               style="fill:#009500;fill-opacity:1;fill-rule:evenodd;stroke:#007d00;stroke-width:1.36309373px;stroke-linecap:butt;stroke-linejoin:miter;stroke-opacity:1" />
            <path
               d="M 230.95444,631.93243 121.66391,508.22255 c 13.27232,70.37988 34.37154,126.76054 109.29053,123.70988 z"
               id="path3004"
               style="fill:#007400;fill-opacity:1;fill-rule:evenodd;stroke:#005d00;stroke-width:1.36309373px;stroke-linecap:butt;stroke-linejoin:miter;stroke-opacity:1" />
          </g>
          <g
             transform="matrix(0.271022,1.036085,-1.007742,0.428823,425.1599,-343.1004)"
             id="g3006">
            <path
               d="m 231.88637,633.39235 c 15.54046,-82.64247 -46.43556,-108.37156 -111.46924,-127.19257 10.79526,66.19329 32.50216,130.40788 111.46924,127.19257 z"
               id="path3008"
               style="fill:#009500;fill-opacity:1;fill-rule:evenodd;stroke:#007d00;stroke-width:1.36309373px;stroke-linecap:butt;stroke-linejoin:miter;stroke-opacity:1" />
            <path
               d="M 230.95444,631.93243 121.66391,508.22255 c 13.27232,70.37988 34.37154,126.76054 109.29053,123.70988 z"
               id="path3010"
               style="fill:#007400;fill-opacity:1;fill-rule:evenodd;stroke:#005d00;stroke-width:1.36309373px;stroke-linecap:butt;stroke-linejoin:miter;stroke-opacity:1" />
          </g>
          <g
             transform="matrix(1.038141,0.263036,-0.111168,1.089529,-337.7276,-516.5949)"
             id="g3012">
            <path
               d="m 231.88637,633.39235 c 15.54046,-82.64247 -46.43556,-108.37156 -111.46924,-127.19257 10.79526,66.19329 32.50216,130.40788 111.46924,127.19257 z"
               id="path3014"
               style="fill:#009500;fill-opacity:1;fill-rule:evenodd;stroke:#007d00;stroke-width:1.36309373px;stroke-linecap:butt;stroke-linejoin:miter;stroke-opacity:1" />
            <path
               d="M 230.95444,631.93243 121.66391,508.22255 c 13.27232,70.37988 34.37154,126.76054 109.29053,123.70988 z"
               id="path3016"
               style="fill:#007400;fill-opacity:1;fill-rule:evenodd;stroke:#005d00;stroke-width:1.36309373px;stroke-linecap:butt;stroke-linejoin:miter;stroke-opacity:1" />
          </g>
          <g
             transform="matrix(-0.01253547,1.070872,-1.085257,0.147144,574.4317,-341.5833)"
             id="g3018">
            <path
               d="m 231.88637,633.39235 c 15.54046,-82.64247 -46.43556,-108.37156 -111.46924,-127.19257 10.79526,66.19329 32.50216,130.40788 111.46924,127.19257 z"
               id="path3020"
               style="fill:#009500;fill-opacity:1;fill-rule:evenodd;stroke:#007d00;stroke-width:1.36309373px;stroke-linecap:butt;stroke-linejoin:miter;stroke-opacity:1" />
            <path
               d="M 230.95444,631.93243 121.66391,508.22255 c 13.27232,70.37988 34.37154,126.76054 109.29053,123.70988 z"
               id="path3022"
               style="fill:#007400;fill-opacity:1;fill-rule:evenodd;stroke:#005d00;stroke-width:1.36309373px;stroke-linecap:butt;stroke-linejoin:miter;stroke-opacity:1" />
          </g>
          <g
             transform="matrix(0.880588,0.6095,-0.485195,0.981844,-70.36761,-666.8372)"
             id="g3024">
            <path
               d="m 231.88637,633.39235 c 15.54046,-82.64247 -46.43556,-108.37156 -111.46924,-127.19257 10.79526,66.19329 32.50216,130.40788 111.46924,127.19257 z"
               id="path3026"
               style="fill:#009500;fill-opacity:1;fill-rule:evenodd;stroke:#007d00;stroke-width:1.36309373px;stroke-linecap:butt;stroke-linejoin:miter;stroke-opacity:1" />
            <path
               d="M 230.95444,631.93243 121.66391,508.22255 c 13.27232,70.37988 34.37154,126.76054 109.29053,123.70988 z"
               id="path3028"
               style="fill:#007400;fill-opacity:1;fill-rule:evenodd;stroke:#005d00;stroke-width:1.36309373px;stroke-linecap:butt;stroke-linejoin:miter;stroke-opacity:1" />
          </g>
          <g
             transform="matrix(0.102611,1.066018,-1.06316,0.262912,572.8813,-541.2853)"
             id="g3030">
            <path
               d="m 231.88637,633.39235 c 15.54046,-82.64247 -46.43556,-108.37156 -111.46924,-127.19257 10.79526,66.19329 32.50216,130.40788 111.46924,127.19257 z"
               id="path3032"
               style="fill:#009500;fill-opacity:1;fill-rule:evenodd;stroke:#007d00;stroke-width:1.36309373px;stroke-linecap:butt;stroke-linejoin:miter;stroke-opacity:1" />
            <path
               d="M 230.95444,631.93243 121.66391,508.22255 c 13.27232,70.37988 34.37154,126.76054 109.29053,123.70988 z"
               id="path3034"
               style="fill:#007400;fill-opacity:1;fill-rule:evenodd;stroke:#005d00;stroke-width:1.36309373px;stroke-linecap:butt;stroke-linejoin:miter;stroke-opacity:1" />
          </g>
          <g
             transform="matrix(0.738484,0.775608,-0.674452,0.862871,122.1255,-776.6216)"
             id="g3036">
            <path
               d="m 231.88637,633.39235 c 15.54046,-82.64247 -46.43556,-108.37156 -111.46924,-127.19257 10.79526,66.19329 32.50216,130.40788 111.46924,127.19257 z"
               id="path3038"
               style="fill:#009500;fill-opacity:1;fill-rule:evenodd;stroke:#007d00;stroke-width:1.36309373px;stroke-linecap:butt;stroke-linejoin:miter;stroke-opacity:1" />
            <path
               d="M 230.95444,631.93243 121.66391,508.22255 c 13.27232,70.37988 34.37154,126.76054 109.29053,123.70988 z"
               id="path3040"
               style="fill:#007400;fill-opacity:1;fill-rule:evenodd;stroke:#005d00;stroke-width:1.36309373px;stroke-linecap:butt;stroke-linejoin:miter;stroke-opacity:1" />
          </g>
        </g>
        <path
           d="m 365.67523,905.89008 a 13.131983,17.172594 0 1 1 -26.26397,0 13.131983,17.172594 0 1 1 26.26397,0 z"
           transform="matrix(1,0,0,0.764706,30.68396,113.1455)"
           id="path3042"
           style="fill:#009500;fill-opacity:1;fill-rule:nonzero;stroke:#007d00;stroke-width:0.84947389;stroke-linecap:round;stroke-miterlimit:4;stroke-opacity:1;stroke-dasharray:none;stroke-dashoffset:0" />
      </g>
    </g>
  </g>
</svg>
